<svg width="76" height="76" viewBox="0 0 76 76" fill="none" xmlns="http://www.w3.org/2000/svg">
<path d="M32.9998 28V48L48.9998 38L32.9998 28Z" fill="#9F5FFE"/>
<path d="M33.2515 66.4306C33.8224 66.5328 34.2862 66.7039 34.6428 66.9438C34.9983 67.1903 35.2563 67.4701 35.417 67.7834C35.5699 68.102 35.6247 68.4199 35.5814 68.7373C35.572 68.7898 35.5441 68.8322 35.4977 68.8645C35.4436 68.9022 35.3869 68.9158 35.3279 68.9052L34.8259 68.8153C34.7471 68.8013 34.6916 68.771 34.6593 68.7246C34.6269 68.6781 34.6089 68.6275 34.6052 68.5727C34.6006 68.4093 34.55 68.2377 34.4535 68.0579C34.3493 67.8835 34.1917 67.7232 33.9808 67.5771C33.7622 67.4363 33.4692 67.3331 33.1017 67.2673C32.5373 67.1663 32.1063 67.1907 31.8085 67.3406C31.503 67.4958 31.3204 67.7408 31.2604 68.0755C31.2193 68.3052 31.2586 68.5018 31.3783 68.6655C31.4903 68.8345 31.6807 69.0007 31.9494 69.1639C32.2182 69.3272 32.5705 69.5155 33.0064 69.729C33.4608 69.9526 33.8308 70.1746 34.1164 70.395C34.402 70.6155 34.6018 70.8612 34.7159 71.1322C34.8233 71.402 34.8436 71.724 34.7766 72.098C34.7132 72.4524 34.5616 72.7504 34.322 72.9919C34.0812 73.24 33.7689 73.4144 33.3852 73.515C32.9949 73.6145 32.5438 73.6184 32.0319 73.5267C31.6251 73.4539 31.2807 73.3347 30.9988 73.1691C30.7091 73.0089 30.4791 72.8187 30.3085 72.5985C30.1368 72.3849 30.0172 72.1637 29.9498 71.9349C29.8813 71.7127 29.8613 71.5026 29.89 71.3045C29.8982 71.2586 29.9228 71.2156 29.9639 71.1755C30.0037 71.142 30.0598 71.1317 30.1319 71.1447L30.6537 71.2381C30.6996 71.2463 30.7465 71.2682 30.7943 71.3039C30.8355 71.3383 30.8628 71.394 30.8761 71.4709C30.8673 71.747 30.9777 72.0004 31.2073 72.2312C31.4369 72.4619 31.7617 72.6149 32.1817 72.69C32.6083 72.7664 32.9707 72.7466 33.2692 72.6307C33.561 72.5137 33.7381 72.2812 33.8004 71.9334C33.8403 71.7103 33.8114 71.5121 33.7138 71.3389C33.6149 71.1722 33.441 71.009 33.1919 70.8492C32.9428 70.6895 32.6129 70.5085 32.2021 70.3063C31.7029 70.068 31.3007 69.8368 30.9954 69.6128C30.6889 69.3954 30.4786 69.1512 30.3646 68.8802C30.2429 68.6146 30.2154 68.2948 30.2824 67.9207C30.3564 67.5073 30.5281 67.1723 30.7976 66.9158C31.0658 66.6658 31.4109 66.4973 31.8328 66.4103C32.247 66.3287 32.7199 66.3354 33.2515 66.4306Z" fill="#9F5FFE"/>
<path d="M24.9484 63.8887C25.011 63.9269 25.049 63.9735 25.0623 64.0284C25.0721 64.0891 25.0597 64.1479 25.025 64.2048L21.6247 69.7796C21.5865 69.8423 21.5399 69.8802 21.4849 69.8935C21.4265 69.9125 21.366 69.903 21.3034 69.8648L17.7775 67.7142C17.7149 67.676 17.6786 67.6266 17.6688 67.5659C17.6555 67.5109 17.6679 67.4521 17.7061 67.3895L17.904 67.0651C17.9421 67.0025 17.9887 66.9645 18.0437 66.9512C18.0987 66.9379 18.1575 66.9503 18.2201 66.9885L21.1227 68.759L22.2631 66.8893L19.5483 65.2334C19.4857 65.1952 19.4494 65.1458 19.4396 65.0851C19.4263 65.0302 19.4387 64.9714 19.4769 64.9088L19.6696 64.5929C19.7043 64.536 19.7509 64.498 19.8093 64.479C19.8643 64.4657 19.9231 64.4781 19.9857 64.5163L22.7005 66.1722L23.8826 64.2342L20.9116 62.4221C20.849 62.3839 20.811 62.3373 20.7977 62.2824C20.7844 62.2274 20.7968 62.1686 20.835 62.106L21.0381 61.773C21.0728 61.7161 21.1194 61.6782 21.1778 61.6591C21.2328 61.6458 21.2916 61.6583 21.3542 61.6964L24.9484 63.8887Z" fill="#9F5FFE"/>
<path d="M16.4564 57.3755C16.5009 57.4337 16.5195 57.4909 16.512 57.547C16.4992 57.6071 16.4663 57.6574 16.4133 57.6979L11.225 61.663C11.1667 61.7075 11.1095 61.726 11.0535 61.7185C10.9921 61.7151 10.9391 61.6842 10.8946 61.6259L8.38685 58.3445C8.34232 58.2862 8.32645 58.227 8.33924 58.1669C8.34673 58.1108 8.37961 58.0605 8.43788 58.016L8.73981 57.7853C8.79807 57.7407 8.85524 57.7222 8.91131 57.7297C8.96738 57.7372 9.01768 57.7701 9.06221 57.8284L11.1267 60.5298L12.8668 59.2L10.9358 56.6734C10.8913 56.6151 10.8754 56.5559 10.8882 56.4958C10.8957 56.4397 10.9286 56.3894 10.9869 56.3449L11.2809 56.1202C11.3338 56.0797 11.391 56.0612 11.4524 56.0647C11.5084 56.0722 11.5587 56.105 11.6033 56.1633L13.5342 58.69L15.3378 57.3116L13.2247 54.5466C13.1802 54.4883 13.1617 54.4311 13.1692 54.3751C13.1766 54.319 13.2095 54.2687 13.2678 54.2242L13.5777 53.9874C13.6306 53.9469 13.6878 53.9284 13.7492 53.9318C13.8052 53.9393 13.8555 53.9722 13.9001 54.0305L16.4564 57.3755Z" fill="#9F5FFE"/>
<path d="M9.26076 39.5496C9.28325 40.1158 9.20597 40.6059 9.02893 41.0199C8.84523 41.4342 8.55457 41.7593 8.15696 41.9953C7.75268 42.2315 7.24132 42.3753 6.62286 42.4265C6.33003 42.4448 6.05038 42.4593 5.78392 42.4699C5.51081 42.4807 5.22756 42.4886 4.9342 42.4936C4.32029 42.4913 3.80566 42.385 3.39032 42.1746C2.96805 41.9579 2.64893 41.6503 2.43294 41.2519C2.21003 40.8471 2.08786 40.3749 2.06643 39.8353C2.04474 39.2891 2.12907 38.8087 2.31943 38.3942C2.50287 37.9732 2.79646 37.638 3.20021 37.3884C3.5973 37.1391 4.10187 36.9923 4.71392 36.948C5.0065 36.923 5.28934 36.9051 5.56246 36.8943C5.82892 36.8837 6.10896 36.8792 6.40259 36.8809C7.0229 36.8763 7.54405 36.979 7.96605 37.1891C8.38113 37.3928 8.69666 37.6938 8.91265 38.0922C9.12197 38.4909 9.238 38.9767 9.26076 39.5496ZM8.41143 39.5833C8.39106 39.0704 8.22131 38.6601 7.90218 38.3526C7.58279 38.0383 7.0795 37.8815 6.39232 37.8821C6.09203 37.8807 5.82531 37.8846 5.59216 37.8939C5.35235 37.9034 5.08615 37.9206 4.79358 37.9456C4.33447 37.9772 3.96487 38.0786 3.68478 38.2499C3.40443 38.4145 3.20279 38.6293 3.07989 38.8944C2.95698 39.1595 2.90227 39.4619 2.91576 39.8016C2.92873 40.128 3.00698 40.4185 3.15053 40.673C3.29408 40.9275 3.51225 41.129 3.80504 41.2775C4.09757 41.4193 4.47404 41.4911 4.93448 41.4928C5.22784 41.4878 5.49443 41.4806 5.73424 41.4711C5.96739 41.4618 6.23372 41.4479 6.53322 41.4293C7.21828 41.3754 7.70755 41.1792 8.00101 40.8406C8.29447 40.502 8.43127 40.0829 8.41143 39.5833Z" fill="#9F5FFE"/>
<path d="M10.9604 28.1073C10.7635 28.6316 10.4999 29.0489 10.1697 29.3592C9.84178 29.6633 9.4488 29.8469 8.99075 29.9098C8.52879 29.9641 7.99513 29.8776 7.38978 29.6502L3.58912 28.2224C3.52047 28.1966 3.47446 28.1579 3.45108 28.1064C3.42146 28.0526 3.41955 27.9913 3.44534 27.9227L3.62469 27.4452C3.65048 27.3766 3.69225 27.3317 3.75001 27.3107C3.80386 27.2811 3.86512 27.2792 3.93376 27.305L7.75314 28.7398C8.36474 28.9696 8.87112 28.996 9.27229 28.8191C9.67345 28.6422 9.96782 28.3042 10.1554 27.8049C10.3406 27.3119 10.3405 26.8667 10.155 26.4695C9.97187 26.066 9.57451 25.7493 8.96291 25.5196L5.14353 24.0847C5.07488 24.0589 5.02887 24.0203 5.00549 23.9688C4.97822 23.9087 4.9763 23.8474 4.99975 23.785L5.18262 23.2982C5.20607 23.2358 5.24666 23.1941 5.30442 23.1731C5.35827 23.1434 5.41953 23.1415 5.48818 23.1673L9.28883 24.5951C9.89419 24.8225 10.3516 25.1119 10.6612 25.4632C10.9669 25.8059 11.143 26.1997 11.1895 26.6445C11.2361 27.0892 11.1597 27.5769 10.9604 28.1073Z" fill="#9F5FFE"/>
<path d="M15.2296 20.0439C15.1799 20.0978 15.1268 20.126 15.0703 20.1283C15.0088 20.1261 14.9536 20.1024 14.9046 20.0573L10.1008 15.6341C10.0468 15.5844 10.0187 15.5313 10.0163 15.4748C10.0091 15.4138 10.0303 15.3563 10.08 15.3023L11.7328 13.5074C12.243 12.9532 12.7772 12.6339 13.3351 12.5495C13.8931 12.4652 14.4271 12.6578 14.9372 13.1275C15.3148 13.4752 15.5357 13.8553 15.5999 14.2679C15.6637 14.671 15.5932 15.0773 15.3883 15.4868L18.3883 16.1556C18.4313 16.168 18.465 16.1855 18.4896 16.2081C18.5288 16.2442 18.5473 16.293 18.5451 16.3544C18.5475 16.4109 18.5306 16.4588 18.4944 16.498L18.1693 16.8512C18.0925 16.9345 18.014 16.9755 17.9338 16.9741C17.8535 16.9727 17.7777 16.9664 17.7065 16.9552L14.8558 16.3014L13.6704 17.5888L15.5684 19.3363C15.6174 19.3815 15.6433 19.4371 15.646 19.503C15.6484 19.5595 15.6247 19.6147 15.575 19.6687L15.2296 20.0439ZM13.0451 17.013L14.1627 15.7992C14.5014 15.4313 14.6783 15.0867 14.6933 14.7653C14.7035 14.4393 14.5565 14.1363 14.2524 13.8564C13.9533 13.5809 13.6417 13.4616 13.3177 13.4986C12.9982 13.5306 12.6668 13.733 12.3236 14.1058L11.206 15.3196L13.0451 17.013Z" fill="#9F5FFE"/>
<path d="M28.6063 10.4036C28.5542 10.4149 28.5043 10.4053 28.4568 10.3747C28.4092 10.3441 28.3797 10.3027 28.3684 10.2506C28.3613 10.218 28.3568 10.1815 28.3549 10.141L29.4057 3.29212C29.4177 3.22131 29.4422 3.16141 29.4793 3.11242C29.5164 3.06343 29.5806 3.02904 29.6718 3.00923L30.3363 2.86497C30.421 2.84658 30.4904 2.85198 30.5445 2.88117C30.6051 2.90894 30.6555 2.95258 30.6957 3.01207L34.4821 8.81075C34.5036 8.84701 34.5179 8.88143 34.525 8.914C34.5363 8.96612 34.5267 9.01597 34.4961 9.06355C34.4655 9.11112 34.4241 9.14057 34.372 9.15188L33.8736 9.26008C33.7954 9.27706 33.7325 9.27024 33.685 9.23964C33.6439 9.20762 33.6133 9.17674 33.5932 9.14699L32.7545 7.87601L29.5491 8.57188L29.3129 10.0762C29.3135 10.1102 29.2985 10.151 29.2679 10.1986C29.2373 10.2462 29.1829 10.2784 29.1047 10.2954L28.6063 10.4036ZM29.6501 7.66994L32.2886 7.09711L30.2162 3.91434L29.6501 7.66994Z" fill="#9F5FFE"/>
<path d="M42.9962 9.54419C42.3918 9.43981 41.9085 9.24133 41.5464 8.94876C41.1908 8.65732 40.9458 8.29365 40.8114 7.85774C40.6769 7.42183 40.6458 6.93612 40.718 6.40059C40.7579 6.13011 40.8046 5.84049 40.8579 5.53173C40.9112 5.22297 40.9656 4.92791 41.0209 4.64656C41.1325 4.11784 41.3248 3.6707 41.5976 3.30514C41.8705 2.93958 42.2233 2.67916 42.6561 2.52388C43.0954 2.36973 43.6172 2.34485 44.2216 2.44924C44.6749 2.52753 45.0616 2.65858 45.3816 2.8424C45.7017 3.02622 45.9552 3.24253 46.1423 3.49132C46.3359 3.74126 46.4691 4.00782 46.542 4.29102C46.616 4.56765 46.6357 4.84506 46.6012 5.12324C46.5976 5.1835 46.5694 5.22937 46.5166 5.26084C46.4703 5.29345 46.4177 5.30465 46.3585 5.29444L45.8166 5.20083C45.7574 5.19062 45.7077 5.16512 45.6674 5.12433C45.6337 5.08468 45.6143 5.02045 45.6094 4.93164C45.5862 4.39994 45.4367 4.01217 45.1608 3.76833C44.8915 3.52562 44.5269 3.36456 44.0671 3.28513C43.5415 3.19436 43.0983 3.27341 42.7373 3.52228C42.3775 3.76457 42.1277 4.21192 41.988 4.86432C41.8752 5.39961 41.7799 5.95144 41.7021 6.51981C41.6149 7.18129 41.6996 7.68979 41.9561 8.04531C42.2138 8.39426 42.6055 8.61412 43.131 8.70489C43.5909 8.78432 43.9883 8.75487 44.3234 8.61655C44.6651 8.47936 44.936 8.16421 45.1362 7.67108C45.1707 7.58908 45.2104 7.53507 45.2555 7.50903C45.3072 7.48412 45.3626 7.47677 45.4217 7.48699L45.9637 7.58059C46.0228 7.5908 46.0687 7.61902 46.1013 7.66525C46.1405 7.71261 46.1517 7.76528 46.1349 7.82327C46.0741 8.09692 45.9619 8.35491 45.7982 8.59727C45.6357 8.83305 45.4214 9.0362 45.1551 9.20671C44.8955 9.37835 44.5841 9.49708 44.2209 9.5629C43.8577 9.62872 43.4495 9.62248 42.9962 9.54419Z" fill="#9F5FFE"/>
<path d="M52.3646 12.7898C52.307 12.7563 52.2681 12.7105 52.2479 12.6524C52.2368 12.592 52.248 12.5329 52.2816 12.4753L55.2406 7.39412L53.5814 6.42792C53.5238 6.39437 53.4849 6.34857 53.4647 6.29052C53.4536 6.23006 53.4648 6.17103 53.4984 6.11342L53.7097 5.75048C53.7466 5.6871 53.7924 5.6482 53.8471 5.63376C53.9109 5.61692 53.9717 5.62527 54.0293 5.65882L58.1945 8.08438C58.2579 8.12128 58.2951 8.16996 58.3062 8.23042C58.3264 8.28847 58.318 8.34918 58.2811 8.41255L58.0697 8.7755C58.0362 8.83311 57.9875 8.87033 57.9237 8.88718C57.869 8.90161 57.81 8.89038 57.7466 8.85348L56.0961 7.89231L53.1371 12.9735C53.1035 13.0311 53.0549 13.0684 52.9911 13.0852C52.9364 13.0997 52.8773 13.0884 52.814 13.0515L52.3646 12.7898Z" fill="#9F5FFE"/>
<path d="M58.9795 17.9294C58.9299 17.8754 58.9062 17.8202 58.9085 17.7637C58.9158 17.7027 58.9439 17.6496 58.993 17.6044L63.8041 13.1745C63.8531 13.1293 63.9059 13.1079 63.9625 13.1102C64.0239 13.108 64.0794 13.1339 64.1291 13.1879L64.4881 13.5778C64.5333 13.6268 64.5522 13.6818 64.545 13.7429C64.5472 13.8043 64.5237 13.8576 64.4747 13.9028L59.6635 18.3327C59.6145 18.3779 59.557 18.3991 59.4911 18.3964C59.4345 18.394 59.3837 18.3683 59.3385 18.3193L58.9795 17.9294Z" fill="#9F5FFE"/>
<path d="M64.2101 25.4977C64.1684 25.4068 64.1562 25.3244 64.1736 25.2504C64.1937 25.1824 64.2332 25.1166 64.292 25.0529L69.2041 20.3424C69.2348 20.3136 69.2654 20.2922 69.2957 20.2783C69.3441 20.256 69.3949 20.2547 69.4479 20.2744C69.501 20.294 69.5386 20.3281 69.5609 20.3765L69.778 20.8491C69.8114 20.9218 69.8152 20.986 69.7895 21.0419C69.7726 21.101 69.7504 21.1405 69.7229 21.1605L65.3887 25.3084L71.3593 24.7226C71.3951 24.7208 71.4396 24.7297 71.4926 24.7494C71.5517 24.7662 71.598 24.811 71.6314 24.8837L71.8484 25.3563C71.8707 25.4047 71.872 25.4555 71.8524 25.5085C71.8355 25.5676 71.8028 25.6083 71.7544 25.6306C71.7241 25.6445 71.688 25.6537 71.6461 25.6583L64.868 26.3069C64.7842 26.3161 64.7085 26.3032 64.6411 26.2681C64.5764 26.2391 64.5232 26.1792 64.4815 26.0883L64.2101 25.4977Z" fill="#9F5FFE"/>
<path d="M66.7676 34.009C66.759 33.9361 66.7722 33.8775 66.8073 33.8331C66.849 33.7879 66.9029 33.7615 66.9691 33.7537L73.4644 32.9898C73.5306 32.982 73.5859 32.9956 73.6303 33.0307C73.6813 33.0649 73.7111 33.1185 73.7196 33.1913L73.7816 33.7177C73.7893 33.7839 73.7724 33.8396 73.7307 33.8848C73.6964 33.9358 73.6462 33.9652 73.58 33.973L67.0848 34.7369C67.0186 34.7447 66.9596 34.7281 66.9078 34.6872C66.8634 34.6522 66.8373 34.6016 66.8295 34.5353L66.7676 34.009Z" fill="#9F5FFE"/>
<path d="M66.6151 42.9018C66.6272 42.8363 66.6571 42.7841 66.7049 42.7455C66.7581 42.7146 66.8174 42.7052 66.883 42.7173L72.6656 43.7828L73.0136 41.8946C73.0256 41.8291 73.0556 41.777 73.1034 41.7383C73.1565 41.7074 73.2159 41.698 73.2814 41.7101L73.6945 41.7862C73.7666 41.7995 73.8187 41.8295 73.8508 41.876C73.8882 41.9304 73.9009 41.9904 73.8888 42.0559L73.0154 46.7961C73.0021 46.8682 72.9689 46.9197 72.9157 46.9506C72.8679 46.9893 72.808 47.0019 72.7359 46.9886L72.3228 46.9125C72.2573 46.9005 72.2058 46.8672 72.1683 46.8129C72.1362 46.7663 72.1268 46.707 72.1401 46.6348L72.4862 44.7565L66.7036 43.6909C66.638 43.6788 66.5865 43.6456 66.5491 43.5913C66.517 43.5447 66.5076 43.4853 66.5209 43.4132L66.6151 42.9018Z" fill="#9F5FFE"/>
<path d="M64.0157 50.8654C64.0497 50.8004 64.0936 50.7594 64.1476 50.7425C64.2075 50.7287 64.267 50.7372 64.3261 50.7681L70.1224 53.7969C70.1815 53.8278 70.2195 53.8702 70.2365 53.9242C70.2593 53.9812 70.2537 54.0423 70.2198 54.1073L69.9743 54.577C69.9434 54.6361 69.8981 54.6726 69.8382 54.6864C69.7811 54.7092 69.723 54.7052 69.6639 54.6743L63.8676 51.6455C63.8085 51.6146 63.7691 51.5677 63.7493 51.5047C63.7324 51.4508 63.7394 51.3942 63.7703 51.3351L64.0157 50.8654Z" fill="#9F5FFE"/>
<path d="M59.9842 57.0531C60.0365 57.0017 60.091 56.9763 60.1475 56.9769C60.2088 56.9822 60.2627 57.0086 60.3094 57.0562L64.882 61.7181C64.9333 61.7704 64.9587 61.8249 64.9582 61.8814C64.9623 61.9428 64.9382 61.9991 64.8858 62.0505L61.9374 64.9424C61.885 64.9938 61.8282 65.0168 61.767 65.0115C61.7104 65.011 61.6565 64.9845 61.6051 64.9322L61.339 64.6609C61.2877 64.6085 61.2623 64.5541 61.2628 64.4975C61.2634 64.4409 61.2898 64.387 61.3422 64.3356L63.7695 61.9548L62.236 60.3913L59.9657 62.6181C59.9134 62.6695 59.8566 62.6925 59.7953 62.6872C59.7388 62.6866 59.6848 62.6602 59.6335 62.6078L59.3744 62.3437C59.3277 62.2961 59.3023 62.2416 59.2982 62.1803C59.2987 62.1237 59.3252 62.0698 59.3775 62.0184L61.6478 59.7917L60.0582 58.1711L57.5738 60.6079C57.5215 60.6593 57.467 60.6847 57.4104 60.6841C57.3539 60.6836 57.2999 60.6571 57.2486 60.6048L56.9755 60.3264C56.9288 60.2788 56.9034 60.2243 56.8993 60.163C56.8998 60.1064 56.9263 60.0524 56.9786 60.0011L59.9842 57.0531Z" fill="#9F5FFE"/>
<path d="M49.6943 64.3954C50.2274 64.1668 50.7088 64.0546 51.1386 64.0589C51.5711 64.0693 51.9405 64.1611 52.2469 64.3343C52.5498 64.5163 52.7705 64.7517 52.9089 65.0406C52.9299 65.0896 52.9299 65.1403 52.9089 65.1929C52.8845 65.2542 52.8446 65.2966 52.7895 65.3203L52.3208 65.5213C52.2473 65.5528 52.1842 65.5581 52.1317 65.5371C52.0792 65.5161 52.0363 65.4838 52.003 65.44C51.9093 65.3061 51.7727 65.1906 51.5932 65.0935C51.4102 65.0051 51.1905 64.9579 50.934 64.9518C50.674 64.9545 50.3725 65.0295 50.0294 65.1766C49.5025 65.4026 49.1559 65.6601 48.9897 65.949C48.8199 66.2467 48.8021 66.5518 48.9361 66.8642C49.0281 67.0787 49.169 67.2213 49.359 67.2922C49.5455 67.3718 49.7959 67.4058 50.1101 67.3944C50.4244 67.3829 50.8222 67.3465 51.3037 67.285C51.8061 67.2219 52.2372 67.2038 52.597 67.2308C52.9568 67.2579 53.2588 67.3532 53.5031 67.5168C53.7413 67.6831 53.9352 67.9408 54.085 68.2901C54.2269 68.6209 54.2642 68.9531 54.1969 69.2866C54.1322 69.6263 53.9673 69.9437 53.7022 70.2388C53.4309 70.5365 53.0563 70.7878 52.5784 70.9928C52.1985 71.1557 51.8453 71.2455 51.5188 71.2623C51.1888 71.2877 50.892 71.2554 50.6285 71.1653C50.3676 71.0814 50.1461 70.9624 49.964 70.8084C49.7845 70.6605 49.6523 70.496 49.5673 70.3148C49.5489 70.2719 49.5459 70.2224 49.5581 70.1664C49.573 70.1165 49.6141 70.0771 49.6815 70.0482L50.1686 69.8393C50.2115 69.8209 50.2627 69.8134 50.3222 69.8169C50.3756 69.823 50.429 69.8545 50.4824 69.9114C50.6269 70.1468 50.8585 70.2978 51.1772 70.3642C51.4958 70.4307 51.8512 70.3798 52.2433 70.2116C52.6416 70.0408 52.9335 69.8249 53.119 69.564C53.2983 69.3057 53.3184 69.0142 53.1791 68.6895C53.0898 68.4812 52.9567 68.3315 52.7798 68.2405C52.6056 68.1557 52.3705 68.115 52.0747 68.1186C51.7788 68.1222 51.4037 68.1525 50.9494 68.2095C50.4014 68.285 49.9384 68.3131 49.5602 68.294C49.1847 68.2809 48.8747 68.1926 48.6305 68.029C48.3827 67.8741 48.1839 67.6221 48.0341 67.2728C47.8686 66.8868 47.8278 66.5126 47.9117 66.1502C47.9983 65.7939 48.1938 65.4634 48.4984 65.1587C48.7994 64.8627 49.1981 64.6083 49.6943 64.3954Z" fill="#9F5FFE"/>
</svg>
