<svg width="210" height="58" viewBox="0 0 210 58" fill="none" xmlns="http://www.w3.org/2000/svg">
<rect x="0.5" y="0.5" width="209" height="57" rx="4.5" stroke="#DDDDDD"/>
<path d="M104.088 30.824V29.048H106.696C107.037 29.048 107.347 28.9787 107.624 28.84C107.901 28.7013 108.12 28.504 108.28 28.248C108.44 27.9813 108.52 27.6613 108.52 27.288C108.52 26.9253 108.44 26.6107 108.28 26.344C108.12 26.0773 107.901 25.8747 107.624 25.736C107.347 25.5973 107.037 25.528 106.696 25.528H104.088V23.752H106.92C107.635 23.752 108.275 23.896 108.84 24.184C109.416 24.472 109.869 24.8827 110.2 25.416C110.531 25.9387 110.696 26.5627 110.696 27.288C110.696 28.0133 110.531 28.6427 110.2 29.176C109.869 29.6987 109.416 30.104 108.84 30.392C108.275 30.68 107.635 30.824 106.92 30.824H104.088ZM102.488 35V23.752H104.664V35H102.488ZM114.996 35.16C114.292 35.16 113.657 34.984 113.092 34.632C112.527 34.28 112.084 33.8 111.764 33.192C111.444 32.584 111.284 31.9013 111.284 31.144C111.284 30.376 111.444 29.688 111.764 29.08C112.084 28.472 112.527 27.992 113.092 27.64C113.657 27.288 114.292 27.112 114.996 27.112C115.551 27.112 116.047 27.224 116.484 27.448C116.921 27.672 117.268 27.9867 117.524 28.392C117.791 28.7867 117.935 29.2347 117.956 29.736V32.52C117.935 33.032 117.791 33.4853 117.524 33.88C117.268 34.2747 116.921 34.5893 116.484 34.824C116.047 35.048 115.551 35.16 114.996 35.16ZM115.38 33.224C115.967 33.224 116.441 33.032 116.804 32.648C117.167 32.2533 117.348 31.7467 117.348 31.128C117.348 30.7227 117.263 30.3653 117.092 30.056C116.932 29.736 116.703 29.4907 116.404 29.32C116.116 29.1387 115.775 29.048 115.38 29.048C114.996 29.048 114.655 29.1387 114.356 29.32C114.068 29.4907 113.839 29.736 113.668 30.056C113.508 30.3653 113.428 30.7227 113.428 31.128C113.428 31.544 113.508 31.912 113.668 32.232C113.839 32.5413 114.068 32.7867 114.356 32.968C114.655 33.1387 114.996 33.224 115.38 33.224ZM117.236 35V32.92L117.572 31.032L117.236 29.176V27.272H119.316V35H117.236ZM123.602 35.064L120.37 27.272H122.642L124.786 33.224H124.018L126.242 27.272H128.53L125.09 35.048L123.602 35.064ZM121.458 38.232L123.81 33.256L125.09 35.048L123.682 38.232H121.458Z" fill="#213430"/>
<path d="M87.8476 23.5642C88.3987 22.8739 88.7727 21.9471 88.6741 21C87.8673 21.0402 86.8828 21.533 86.3128 22.2238C85.801 22.8154 85.3481 23.7809 85.4662 24.6883C86.3717 24.767 87.2766 24.235 87.8476 23.5642Z" fill="#213430"/>
<path d="M88.6635 24.8656C87.3483 24.7871 86.23 25.613 85.6019 25.613C84.9735 25.613 84.0116 24.9052 82.9714 24.9242C81.6174 24.9442 80.3611 25.7107 79.674 26.9299C78.2607 29.3689 79.301 32.9868 80.6753 34.9732C81.3426 35.9559 82.147 37.038 83.2068 36.9991C84.2081 36.9598 84.6006 36.3498 85.8177 36.3498C87.034 36.3498 87.3876 36.9991 88.4475 36.9794C89.5468 36.9598 90.234 35.9962 90.9013 35.0125C91.6669 33.8922 91.9803 32.8105 92 32.7511C91.9803 32.7314 89.8804 31.9247 89.8609 29.506C89.8411 27.4809 91.5096 26.5175 91.5881 26.4578C90.646 25.0625 89.1738 24.9052 88.6635 24.8656Z" fill="#213430"/>
</svg>
