<svg width="90" height="90" viewBox="0 0 90 90" fill="none" xmlns="http://www.w3.org/2000/svg">
<circle cx="45" cy="45" r="45" fill="#1AD0D1"/>
<g clip-path="url(#clip0_401_104)">
<path d="M59.3744 22.6392C58.1305 21.4684 56.5385 20.9062 54.9341 20.9062C53.1279 20.9062 51.3039 21.6184 49.944 22.9801C49.6218 23.3023 49.0985 23.301 48.7768 22.9783C47.4168 21.6184 45.5928 20.9062 43.7867 20.9062C42.1822 20.9062 40.5903 21.4684 39.3463 22.6392C36.6104 25.2146 36.5622 29.5229 39.2 32.1607L47.9462 40.9069C48.7272 41.6879 49.9935 41.6879 50.7746 40.9069L59.5208 32.1607C62.1586 29.5229 62.1104 25.2146 59.3744 22.6392Z" fill="white"/>
<path d="M69.3475 47.495C67.7858 46.4367 65.9458 46.7365 64.3163 47.6771C62.9277 48.4786 55.9278 54.4066 53.8892 56.1412C53.5264 56.45 53.0696 56.6168 52.5932 56.6169L44.1223 56.6185C43.6939 56.6185 43.2299 56.1366 43.2299 55.7101C43.2299 55.2086 43.6672 54.8177 44.1223 54.8177H49.7566C51.7287 54.8177 53.9364 53.5327 53.9364 51.2483C53.9364 48.8211 51.7287 47.6788 49.7566 47.6788C46.6705 47.6788 45.8265 47.6905 45.6907 47.6927C45.6764 47.693 45.6625 47.6931 45.6482 47.6931C44.2845 47.6922 42.9031 47.608 41.8378 47.0381C40.41 46.3064 38.7645 45.8923 37.0084 45.8923C34.06 45.8923 31.4204 47.0685 29.6107 48.9228L21.4363 56.9712C20.6449 57.7505 20.6399 59.0253 21.4252 59.8106L29.2941 67.6795C30.0751 68.4605 31.3415 68.4605 32.1225 67.6795L33.692 66.11C34.067 65.7349 34.5757 65.5242 35.1062 65.5242H52.3516C54.1506 65.5242 55.8871 64.8639 57.231 63.6699L69.4688 49.9419C70.2166 49.2779 70.1738 48.0572 69.3475 47.495Z" fill="white"/>
</g>
<defs>
<clipPath id="clip0_401_104">
<rect x="20" y="20" width="50" height="50" fill="white"/>
</clipPath>
</defs>
</svg>
