<svg width="85" height="85" viewBox="0 0 85 85" fill="none" xmlns="http://www.w3.org/2000/svg">
<circle cx="42.418" cy="42.5491" r="42.418" fill="#1AD0D1"/>
<g clip-path="url(#clip0_401_201)">
<path fill-rule="evenodd" clip-rule="evenodd" d="M32.8985 31.1553C34.8822 33.9174 37.4159 36.2214 40.3337 37.9165C40.9604 38.3074 41.6809 38.5143 42.4156 38.5143C43.1503 38.5143 43.8708 38.3074 44.4975 37.9165C47.4153 36.2214 49.949 33.9174 51.9327 31.1553C55.0448 26.675 54.4238 20.9767 49.5121 19.2578C48.2453 18.8814 46.8978 18.893 45.6375 19.2912C44.3771 19.6895 43.2595 20.4568 42.4239 21.4976C38.7531 17.036 31.6742 18.8313 31.0232 24.6048C30.691 25.7552 31.4707 29.3184 32.8985 31.1553ZM26.2573 43.9454C25.6573 44.303 25.1165 44.7548 24.6547 45.2843C24.5082 42.5519 24.9812 39.8219 26.0371 37.306C27.093 34.79 28.7034 32.5558 30.7433 30.7767C30.983 31.2289 31.2852 31.733 31.6107 32.225C29.9832 33.7048 28.669 35.5075 27.7485 37.5227C26.8281 39.538 26.3207 41.7235 26.2573 43.9454ZM28.8281 55.2311C28.0091 55.0776 27.2378 54.7271 26.5783 54.2089C22.6519 51.2422 24.8118 44.5896 29.7754 44.6439C30.6082 44.6438 31.429 44.8462 32.1697 45.2341C32.9104 45.6221 33.5496 46.1845 34.0344 46.8747C34.5191 47.5648 34.8354 48.3629 34.9569 49.2026C35.0785 50.0423 35.0018 50.8994 34.7332 51.7028C34.4647 52.5063 34.012 53.2328 33.4128 53.8223C32.8135 54.4117 32.085 54.847 31.2877 55.092C30.4904 55.337 29.6472 55.3847 28.8281 55.2311ZM55.0562 44.644C48.1123 44.9017 48.1396 55.0718 55.0563 55.3205C61.9742 55.1042 61.9983 44.8762 55.0562 44.644ZM37.1773 51.7841C37.4107 58.8406 47.4208 58.8377 47.6527 51.7839C47.4085 44.7081 37.421 44.7086 37.1773 51.7841ZM47.2491 56.7771C45.9558 58.0644 44.2198 58.7851 42.4121 58.7851C40.6043 58.785 38.8683 58.0644 37.5751 56.7771C35.2272 58.2245 32.1418 61.4786 33.8986 64.4561C34.2106 64.966 34.6454 65.3861 35.1617 65.6765C35.6779 65.9668 36.2584 66.1177 36.8481 66.1149H47.9843C48.5739 66.1177 49.1545 65.9668 49.6707 65.6765C50.1869 65.3861 50.6217 64.966 50.9336 64.4561C52.6941 61.4736 49.5975 58.226 47.2491 56.7771ZM63.7796 59.2609C62.9418 57.464 61.5876 55.9693 59.8968 54.9751C59.2612 55.6223 58.5062 56.1349 57.6753 56.4832C56.8444 56.8314 55.9541 57.0086 55.0556 57.0043C53.2475 57.0002 51.5128 56.2748 50.2228 54.9835C49.5018 55.3277 49.8765 55.6052 50.3315 55.9422C50.5558 56.1084 50.7997 56.289 50.9415 56.4992C52.506 58.1225 53.9854 60.2882 53.9569 62.6457C54.0035 62.8674 53.9348 63.1773 53.8697 63.4703C53.763 63.9509 53.6664 64.3861 54.1055 64.3128H60.632C61.2156 64.3072 61.7886 64.153 62.2988 63.8641C62.8089 63.5752 63.2401 63.1608 63.5529 62.6587C63.8658 62.1565 64.0504 61.5826 64.09 60.9891C64.1296 60.3957 64.0229 59.8016 63.7796 59.2609ZM33.8903 56.4992C34.2614 56.1195 34.6589 55.7677 35.0799 55.4467C34.7559 54.8335 34.5492 55.0254 34.2339 55.318C34.1572 55.3892 34.074 55.4664 33.9812 55.5394C32.6579 56.5716 31.0139 57.0828 29.3507 56.9791C27.6875 56.8754 26.1167 56.1639 24.9268 54.9751C22.5799 56.4317 19.4962 59.6889 21.2586 62.6625C21.5714 63.1692 22.0054 63.5864 22.5199 63.8751C23.0344 64.1638 23.6124 64.3145 24.1997 64.3129H30.7262C31.1654 64.3891 31.0683 63.9499 30.9617 63.4676C30.8968 63.1742 30.8285 62.8649 30.875 62.6458C30.8411 60.2825 32.3252 58.1223 33.8903 56.4992ZM57.0804 37.5174C56.1585 35.5007 54.8425 33.6969 53.2129 32.2164C53.5328 31.7531 53.8279 31.2725 54.0969 30.7767C58.1374 34.1759 60.6637 40.2998 60.1772 45.2252C59.6871 44.7442 59.15 44.3154 58.5745 43.9454C58.5107 41.7214 58.0023 39.5341 57.0804 37.5174Z" fill="white"/>
</g>
<defs>
<clipPath id="clip0_401_201">
<rect width="47.1311" height="47.1311" fill="white" transform="translate(18.8525 18.9835)"/>
</clipPath>
</defs>
</svg>
