<svg width="24" height="16" viewBox="0 0 24 16" fill="none" xmlns="http://www.w3.org/2000/svg">
<path d="M22.8601 2.50346C22.5994 1.51804 21.8313 0.741958 20.8561 0.478583C19.0885 0 12.0004 0 12.0004 0C12.0004 0 4.91236 0 3.14467 0.478583C2.16945 0.742 1.40138 1.51804 1.1407 2.50346C0.667053 4.28958 0.667053 8.01617 0.667053 8.01617C0.667053 8.01617 0.667053 11.7428 1.1407 13.5289C1.40138 14.5143 2.16945 15.258 3.14467 15.5214C4.91236 16 12.0004 16 12.0004 16C12.0004 16 19.0884 16 20.8561 15.5214C21.8313 15.258 22.5994 14.5143 22.8601 13.5289C23.3337 11.7428 23.3337 8.01617 23.3337 8.01617C23.3337 8.01617 23.3337 4.28958 22.8601 2.50346ZM9.68219 11.3996V4.63271L15.6064 8.01625L9.68219 11.3996Z" fill="#1AD0D1"/>
</svg>
