<svg width="210" height="58" viewBox="0 0 210 58" fill="none" xmlns="http://www.w3.org/2000/svg">
<rect x="0.5" y="0.5" width="209" height="57" rx="4.5" stroke="#DDDDDD"/>
<path d="M106.088 30.824V29.048H108.696C109.037 29.048 109.347 28.9787 109.624 28.84C109.901 28.7013 110.12 28.504 110.28 28.248C110.44 27.9813 110.52 27.6613 110.52 27.288C110.52 26.9253 110.44 26.6107 110.28 26.344C110.12 26.0773 109.901 25.8747 109.624 25.736C109.347 25.5973 109.037 25.528 108.696 25.528H106.088V23.752H108.92C109.635 23.752 110.275 23.896 110.84 24.184C111.416 24.472 111.869 24.8827 112.2 25.416C112.531 25.9387 112.696 26.5627 112.696 27.288C112.696 28.0133 112.531 28.6427 112.2 29.176C111.869 29.6987 111.416 30.104 110.84 30.392C110.275 30.68 109.635 30.824 108.92 30.824H106.088ZM104.488 35V23.752H106.664V35H104.488ZM116.996 35.16C116.292 35.16 115.657 34.984 115.092 34.632C114.527 34.28 114.084 33.8 113.764 33.192C113.444 32.584 113.284 31.9013 113.284 31.144C113.284 30.376 113.444 29.688 113.764 29.08C114.084 28.472 114.527 27.992 115.092 27.64C115.657 27.288 116.292 27.112 116.996 27.112C117.551 27.112 118.047 27.224 118.484 27.448C118.921 27.672 119.268 27.9867 119.524 28.392C119.791 28.7867 119.935 29.2347 119.956 29.736V32.52C119.935 33.032 119.791 33.4853 119.524 33.88C119.268 34.2747 118.921 34.5893 118.484 34.824C118.047 35.048 117.551 35.16 116.996 35.16ZM117.38 33.224C117.967 33.224 118.441 33.032 118.804 32.648C119.167 32.2533 119.348 31.7467 119.348 31.128C119.348 30.7227 119.263 30.3653 119.092 30.056C118.932 29.736 118.703 29.4907 118.404 29.32C118.116 29.1387 117.775 29.048 117.38 29.048C116.996 29.048 116.655 29.1387 116.356 29.32C116.068 29.4907 115.839 29.736 115.668 30.056C115.508 30.3653 115.428 30.7227 115.428 31.128C115.428 31.544 115.508 31.912 115.668 32.232C115.839 32.5413 116.068 32.7867 116.356 32.968C116.655 33.1387 116.996 33.224 117.38 33.224ZM119.236 35V32.92L119.572 31.032L119.236 29.176V27.272H121.316V35H119.236ZM125.602 35.064L122.37 27.272H124.642L126.786 33.224H126.018L128.242 27.272H130.53L127.09 35.048L125.602 35.064ZM123.458 38.232L125.81 33.256L127.09 35.048L125.682 38.232H123.458Z" fill="#213430"/>
<path d="M93.8472 27.5H86.1699V30.5825L90.5914 30.5834C90.4121 31.6091 89.8349 32.4834 88.9506 33.0663V33.0668C88.9509 33.0666 88.9513 33.0664 88.9516 33.0663L88.872 34.9086L91.5836 35.0652C91.5832 35.0655 91.5828 35.0659 91.5825 35.0662H91.5826C93.1193 33.6735 93.9998 31.6147 93.9998 29.1824C93.9997 28.5976 93.9463 28.038 93.8472 27.5Z" fill="#518EF8"/>
<path d="M88.9527 33.0668C88.9524 33.067 88.952 33.0672 88.9517 33.0674C88.2193 33.5508 87.2761 33.8337 86.173 33.8337C84.0409 33.8337 82.2323 32.4269 81.5846 30.5307H81.5843C81.5844 30.531 81.5845 30.5314 81.5846 30.5317L79.3209 30.1807L78.8701 32.5938C80.2153 35.2071 82.9796 37.0002 86.1731 37.0002C88.3799 37.0002 90.2339 36.2897 91.5837 35.0666C91.5841 35.0663 91.5845 35.066 91.5848 35.0657L88.9527 33.0668Z" fill="#28B446"/>
<path d="M81.3283 29.0007C81.3283 28.4683 81.4189 27.9536 81.5839 27.4697L80.8771 25.4072H78.869C78.3129 26.488 78 27.7079 78 29.0007C78 30.2935 78.3139 31.5133 78.869 32.5941L78.8694 32.5938L81.5839 30.5316C81.5839 30.5313 81.5838 30.531 81.5837 30.5307C81.4188 30.0472 81.3283 29.5328 81.3283 29.0007Z" fill="#FBBB00"/>
<path d="M86.1725 21C82.9797 21 80.2142 22.7934 78.8691 25.4071L81.584 27.4696C82.2317 25.5734 84.0403 24.1667 86.1724 24.1667C87.3772 24.1667 88.4562 24.573 89.308 25.367L91.6404 23.085C90.2239 21.793 88.377 21 86.1725 21Z" fill="#F14336"/>
</svg>
