<svg width="15" height="12" viewBox="0 0 15 12" fill="none" xmlns="http://www.w3.org/2000/svg">
<path d="M7.5 8.8125C7.01572 8.8125 6.53145 8.65365 6.11836 8.33174L0 3.57422V10.2188C0 10.9951 0.62959 11.625 1.40625 11.625H13.5938C14.3704 11.625 15 10.9954 15 10.2188V3.57422L8.88281 8.33496C8.46973 8.6543 7.9834 8.8125 7.5 8.8125ZM0.477246 2.75684L6.69404 7.59375C7.16836 7.96289 7.83281 7.96289 8.30713 7.59375L14.5239 2.75684C14.7979 2.52246 15 2.16211 15 1.78125C15 1.00459 14.3701 0.375 13.5938 0.375H1.40625C0.62959 0.375 0 1.00459 0 1.78125C0 2.16211 0.176074 2.52246 0.477246 2.75684Z" fill="white" />
</svg>