<svg width="17" height="13" viewBox="0 0 17 13" fill="none" xmlns="http://www.w3.org/2000/svg">
<path d="M16.6448 2.37759C16.4493 1.63853 15.8732 1.05647 15.1418 0.858938C13.8161 0.5 8.5 0.5 8.5 0.5C8.5 0.5 3.18398 0.5 1.85821 0.858938C1.1268 1.0565 0.550746 1.63853 0.355231 2.37759C0 3.71719 0 6.51213 0 6.51213C0 6.51213 0 9.30706 0.355231 10.6467C0.550746 11.3857 1.1268 11.9435 1.85821 12.1411C3.18398 12.5 8.5 12.5 8.5 12.5C8.5 12.5 13.816 12.5 15.1418 12.1411C15.8732 11.9435 16.4493 11.3857 16.6448 10.6467C17 9.30706 17 6.51213 17 6.51213C17 6.51213 17 3.71719 16.6448 2.37759ZM6.76135 9.04972V3.97453L11.2045 6.51219L6.76135 9.04972Z" fill="white" />
</svg>